<svg id="Group_2" data-name="Group 2" xmlns="http://www.w3.org/2000/svg" width="414.108" height="450.175" viewBox="0 0 414.108 450.175">
  <g id="Group_1" data-name="Group 1" transform="translate(0 0)">
    <ellipse id="Ellipse_3" data-name="Ellipse 3" cx="74.917" cy="79.373" rx="74.917" ry="79.373" transform="matrix(0.995, 0.105, -0.105, 0.995, 85.161, 0)" fill="#b5b4b3"/>
    <ellipse id="Ellipse_1" data-name="Ellipse 1" cx="66.31" cy="62.973" rx="66.31" ry="62.973" transform="translate(86.313 96.779)" fill="#dec38d"/>
    <ellipse id="Ellipse_2" data-name="Ellipse 2" cx="75.609" cy="43.262" rx="75.609" ry="43.262" transform="matrix(0.996, 0.087, -0.087, 0.996, 79.821, 74.165)" fill="#a4a3a2"/>
    <path id="Path_1" data-name="Path 1" d="M84.056-.018c76.616,2.2,56.876,56.485,61.811,86.1S227.3,199.586,84.056,206,.282,135.429,5.217,86.078,7.44-2.217,84.056-.018Z" transform="translate(88.167 222.743)" fill="#82cca0"/>
    <ellipse id="Ellipse_4" data-name="Ellipse 4" cx="30.861" cy="31.695" rx="30.861" ry="31.695" transform="translate(352.386 159.335)" fill="#dec38d"/>
    <path id="Path_2" data-name="Path 2" d="M64.224,2.986c35.47,0,72.569-14.964,64.224,22.1s-28.754,22.1-64.224,22.1S0,37.3,0,25.09,28.754,2.986,64.224,2.986Z" transform="translate(208.819 229.202) rotate(22)" fill="#82cca0"/>
    <path id="Path_3" data-name="Path 3" d="M64.224,2.986c35.47,0,72.569-14.964,64.224,22.1s-28.754,22.1-64.224,22.1S0,37.3,0,25.09,28.754,2.986,64.224,2.986Z" transform="translate(270.174 292.712) rotate(-51)" fill="#82cca0"/>
    <path id="Path_4" data-name="Path 4" d="M64.224,2.986c35.47,0,72.569-14.964,64.224,22.1s-28.754,22.1-64.224,22.1S0,37.3,0,25.09,28.754,2.986,64.224,2.986Z" transform="translate(125.614 257.262) rotate(124)" fill="#82cca0"/>
    <path id="Path_5" data-name="Path 5" d="M64.224,2.986c35.47,0,72.569-14.964,64.224,22.1s-28.754,22.1-64.224,22.1S0,37.3,0,25.09,28.754,2.986,64.224,2.986Z" transform="matrix(0.407, 0.914, -0.914, 0.407, 45.841, 311.335)" fill="#82cca0"/>
  </g>
</svg>
