<?xml version="1.0" encoding="UTF-8" standalone="no"?><!-- Generator: Gravit.io --><svg xmlns="http://www.w3.org/2000/svg" xmlns:xlink="http://www.w3.org/1999/xlink" style="isolation:isolate" viewBox="0 0 100 100" width="100pt" height="100pt"><defs><clipPath id="_clipPath_O4mQhWP8mx6QQiODIBb5T5gHSYo1hjxx"><rect width="100" height="100"/></clipPath></defs><g clip-path="url(#_clipPath_O4mQhWP8mx6QQiODIBb5T5gHSYo1hjxx)"><clipPath id="_clipPath_WsQQVxER0a3zPekvP2fw816bRz4YbDGo"><path d=" M -18.868 118.868 L 118.868 118.868 L 118.868 -18.868 L -18.868 -18.868 L -18.868 118.868 Z " fill="rgb(255,255,255)"/></clipPath><g clip-path="url(#_clipPath_WsQQVxER0a3zPekvP2fw816bRz4YbDGo)"><path d=" M 15.977 96.52 L 21.168 92.458 L 21.159 92.458 C 13.987 92.458 10.007 89.562 7.932 87.132 C 5.739 84.564 4.149 79.664 3.974 79.114 L 2.625 74.849 L 6.544 77.004 C 6.559 77.012 7.746 77.659 9.439 78.348 L 10.152 75.056 C 10.139 74.962 10.128 74.868 10.117 74.776 L 9.788 71.987 L 6.782 71.061 C 6.782 71.061 8.087 65.036 8.142 64.782 C 8.367 63.743 8.88 62.761 9.602 61.977 C 9.961 61.132 9.971 61.03 10.378 60.422 L 7.623 60.973 C 7.768 60.786 13.417 54.175 18.789 54.175 C 19.17 54.175 19.555 54.198 19.935 54.242 L 20.857 54.35 L 21.196 54.989 C 21.289 55.084 21.567 55.308 22.12 55.308 C 22.356 55.308 22.619 55.267 22.901 55.188 C 23.785 54.938 26.631 53.809 29.149 51.607 C 31.293 49.732 32.578 47.638 32.987 45.362 L 32.119 45.08 C 32.121 45.051 32.318 41.434 30.043 40.364 C 29.28 40.005 28.376 39.831 27.278 39.831 C 25.823 39.831 24.267 40.142 22.894 40.417 C 21.644 40.668 20.564 40.884 19.597 40.884 C 19.052 40.884 18.573 40.813 18.151 40.667 C 17.753 40.72 17.356 40.747 16.966 40.747 C 14.821 40.747 13.091 39.943 12.25 38.602 C 11.104 37.879 9.683 36.351 9.501 33.863 L 9.429 32.879 L 10.222 32.292 C 10.5 32.087 11.832 31.134 13.108 30.756 C 13.717 30.334 15.326 29.201 16.985 27.887 C 20.136 25.392 21.025 24.19 21.264 23.778 C 21.571 20.604 23.534 18.327 25.845 15.771 C 25.79 14.265 25.448 11.815 24.507 10.842 L 23.12 9.409 L 24.695 8.184 C 24.899 8.025 26.01 7.245 28.155 7.216 C 28.203 6.565 28.224 5.873 28.169 5.377 L 27.914 3.082 L 30.2 3.406 C 31.6 3.604 33.993 4.599 36.184 6.375 C 37.967 7.82 40.164 10.243 40.842 13.739 C 41.965 14.098 43.327 14.638 44.836 15.237 C 47.355 16.236 54.125 18.461 55.647 18.55 L 52.309 20.103 C 55.338 22.145 66.026 27.391 70.706 27.825 L 66.535 29.637 C 66.517 29.645 66.395 29.698 66.187 29.776 C 68.108 31.17 71.001 32.755 74.322 32.866 C 75.976 32.921 78.601 34.645 80.47 36.33 C 81.75 37.484 83.756 39.594 84.554 42.07 C 85.65 42.23 86.631 42.776 87.313 43.622 C 88.179 44.696 88.478 46.11 88.154 47.604 C 88.066 48.01 86.289 56.215 86.289 56.215 L 85.18 56.918 C 85.231 57 85.284 57.081 85.34 57.163 C 86.828 57.723 88.279 58.51 89.339 60.037 L 90.366 54.699 L 92.616 60.519 C 94.087 64.323 94.365 68.279 93.398 71.658 C 92.763 73.878 91.611 75.774 90.107 77.14 C 90.417 77.313 90.748 77.487 91.101 77.672 C 91.294 77.773 91.49 77.876 91.69 77.983 L 95.138 79.822 L 91.493 81.232 C 87.463 82.792 83.383 83.583 79.369 83.583 L 79.366 83.583 C 75.203 83.583 71.017 82.709 67.261 81.055 C 64.468 79.825 62.741 78.535 62.432 78.257 L 62.365 78.197 C 60.545 79.755 58.718 81.452 56.94 83.103 C 52.143 87.559 48.003 91.405 44.341 92.442 L 37.302 94.437 L 38.667 91.947 C 37.272 92.758 36.013 93.381 34.982 93.845 C 31.258 95.52 27.475 96.52 24.862 96.52 L 15.977 96.52 Z " fill="rgb(240,239,240)"/><path d=" M 13.115 62.769 C 13.11 59.677 19.99 58.323 20.283 58.267 L 20.518 58.222 L 20.518 58.835 L 17.717 60.58 L 22.582 59.059 L 22.595 59.057 C 29.442 57.863 32.921 53.877 34.635 50.743 C 36.497 47.337 36.739 44.169 36.741 44.137 L 36.791 43.432 L 38.631 47.009 C 39.356 42.809 38.526 40.097 37.677 38.542 C 37.155 37.586 36.565 36.943 36.134 36.554 C 36.685 38.027 36.549 39.484 36.542 39.555 L 36.466 40.311 L 36.163 39.614 C 34.659 36.149 31.272 35.631 29.387 35.631 C 29.204 35.631 29.036 35.636 28.889 35.644 C 29.351 35.955 29.685 36.351 29.705 36.375 L 30.018 36.751 L 29.531 36.699 C 28.832 36.623 28.144 36.585 27.485 36.585 C 25.046 36.585 23.411 37.094 22.218 37.465 C 21.959 37.546 21.714 37.622 21.494 37.682 C 21.189 37.765 20.873 37.807 20.554 37.807 C 19.493 37.807 18.733 37.35 18.701 37.33 L 18.323 37.099 L 18.747 36.972 C 19.125 36.858 19.743 36.623 20.459 36.351 C 22.243 35.671 24.679 34.745 26.415 34.517 C 26.76 34.186 26.906 33.875 26.851 33.592 C 26.761 33.136 26.158 32.785 25.831 32.642 C 22.925 35.098 18.316 36.544 18.269 36.559 L 17.717 36.73 L 18.049 36.256 C 18.214 36.02 18.272 35.807 18.284 35.639 C 17.44 36.602 16.662 37.09 15.965 37.09 C 15.645 37.09 15.349 36.988 15.084 36.786 L 14.918 36.66 L 15.053 36.501 C 16.293 35.042 19.022 33.062 19.137 32.978 L 19.688 32.579 L 19.188 33.838 C 21.147 32.785 25.228 31.67 27.773 31.034 C 24.249 31.422 20.848 32.527 20.807 32.541 L 20.113 32.768 L 21.308 31.419 C 18.722 32.256 16.406 34.261 15.204 35.44 L 14.898 35.194 C 15.529 34.191 15.504 33.723 15.436 33.613 L 15.205 33.472 L 15.447 33.316 C 16.079 32.794 16.804 32.214 17.57 31.6 C 20.1 29.576 23.248 27.057 24.743 25.223 L 24.941 24.981 L 25.201 25.53 C 25.266 25.485 25.332 25.441 25.397 25.398 L 25.533 25.307 L 25.647 25.423 C 26.751 26.542 27.996 26.776 28.845 26.776 C 30.002 26.776 31.117 26.342 31.821 25.653 C 30.774 25.993 29.941 26.023 29.677 26.023 C 29.622 26.023 29.593 26.022 29.593 26.022 L 29.537 25.637 C 30.798 25.204 31.831 23.591 32.216 22.918 L 32.271 22.823 L 32.38 22.818 C 32.479 22.814 32.575 22.812 32.67 22.812 C 33.007 22.812 33.321 22.837 33.607 22.886 C 33.202 22.216 32.551 21.89 31.63 21.89 C 29.366 21.89 26.369 23.921 26.339 23.941 L 26.213 24.028 L 26.097 23.927 C 25.701 23.58 26.14 22.612 26.551 21.899 C 26.158 22.14 25.813 22.499 25.521 22.971 L 25.172 22.788 C 26.399 19.974 29.626 16.748 30.142 16.244 C 30.052 14.061 31.348 8.536 31.405 8.299 L 31.48 7.979 L 31.727 8.195 C 32.287 8.685 32.849 11.124 32.911 11.4 L 32.928 11.476 L 32.889 11.543 C 31.82 13.375 31.469 15.884 31.368 16.853 L 32.027 16.414 L 32.9 18.844 C 35.427 14.698 34.06 10.032 34.045 9.984 L 34.382 9.794 C 37.37 13.103 37.427 16.084 36.949 18.001 C 36.595 19.423 35.916 20.468 35.506 21.004 C 36.42 20.818 38.339 20.13 38.911 17.603 L 38.953 17.42 L 39.138 17.452 C 42.132 17.972 45.792 20.41 49.667 22.992 C 52.89 25.139 56.223 27.36 59.23 28.469 L 59.916 28.722 L 59.196 28.849 C 58.429 28.985 57.748 29.09 57.162 29.164 C 61.006 30.997 66.131 36.323 66.36 36.563 L 66.7 36.918 L 62.796 36.755 C 65.745 39.387 68.44 40.566 71.477 40.566 C 72.211 40.566 72.981 40.502 73.862 40.368 C 70.339 38.646 67.167 35.555 67.134 35.522 L 66.788 35.183 L 67.272 35.183 C 67.316 35.183 68.418 35.201 73.856 36.773 C 77.821 37.92 79.615 41.878 80.331 44.135 L 80.391 44.323 L 80.203 44.383 C 76.64 45.527 70.031 47.451 60.56 50.1 L 60.542 50.105 L 60.524 50.107 C 59.946 50.159 59.364 50.186 58.795 50.186 L 58.794 50.186 C 55.14 50.186 52.965 49.121 52.874 49.076 L 52.58 48.929 L 54.408 47.623 C 51.387 47.572 47.352 46.199 44.391 45.192 C 43.936 45.037 43.518 44.895 43.137 44.769 C 45.297 46.893 49.442 48.897 49.487 48.918 L 49.739 49.039 L 48.25 50.528 C 50.047 51.449 51.107 51.945 51.685 52.201 L 52.191 52.425 L 51.657 52.572 C 35.519 57.025 18.267 61.649 13.364 62.96 L 13.115 63.027 L 13.115 62.769 Z " fill="rgb(255,104,32)"/><path d=" M 26.896 92.392 C 27.21 92.022 27.616 91.615 28.045 91.184 C 29.25 89.974 30.731 88.487 31.602 86.503 C 26.602 88.165 22.251 88.349 20.582 88.349 C 15.59 88.349 12.053 86.642 9.769 83.133 L 9.463 82.661 L 9.997 82.837 C 11.422 83.304 14.074 84.174 17.458 84.174 C 19.668 84.174 21.879 83.802 24.038 83.066 C 21.416 82.309 19.18 81.069 18.036 80.366 L 18.179 80.004 C 19.691 80.309 21.33 80.463 23.051 80.463 C 33.408 80.462 44.452 75.238 47.902 73.194 C 46.82 72.445 45.17 72.218 43.943 72.049 C 43.445 71.981 43.016 71.922 42.721 71.84 L 42.74 71.454 C 44.042 71.225 47.433 70.771 48.89 70.631 C 52.426 70.291 56.082 69.94 58.68 68.389 L 59.807 67.715 L 58.947 66.723 C 58.594 66.316 58.151 65.952 57.629 65.642 L 57.199 65.387 L 57.688 65.279 C 60.038 64.761 62.738 64.498 65.711 64.498 C 68.274 64.498 70.498 64.688 72.15 64.854 L 75.409 65.181 L 73.009 62.953 C 72.649 62.618 72.178 62.304 71.609 62.019 L 71.047 61.736 L 71.67 61.646 C 72.918 61.465 74.128 61.373 75.267 61.373 C 80.779 61.373 83.223 63.542 83.325 63.635 L 83.334 63.644 L 85.012 65.4 L 85.201 62.942 C 85.23 62.563 85.182 62.137 85.057 61.678 L 84.891 61.068 L 85.375 61.475 C 87.454 63.221 88.139 65.853 87.355 69.086 L 86.483 72.684 L 89.179 70.147 C 89.454 69.889 89.728 69.593 89.993 69.267 L 90.338 69.443 C 89.718 71.75 88.58 73.472 86.858 74.705 C 85.607 75.6 84.058 76.233 82.01 76.681 C 83.656 77.789 85.116 78.525 85.686 78.741 L 86.382 79.004 L 85.647 79.121 C 83.865 79.406 82.099 79.55 80.398 79.55 C 74.929 79.55 70.878 78.063 68.443 76.816 L 68.105 76.643 L 68.44 76.465 C 69.462 75.924 70.171 75.114 70.585 74.529 L 70.653 74.433 L 70.77 74.447 C 71.561 74.541 72.756 74.653 73.957 74.653 C 75.183 74.653 76.14 74.54 76.883 74.306 C 78.638 73.755 78.828 72.562 78.828 72.076 C 78.828 69.259 76.845 67.769 73.092 67.769 C 69.931 67.769 66.2 69.612 61.353 73.567 L 60.826 74.001 C 58.622 75.834 56.375 77.921 54.203 79.939 C 51.289 82.645 48.538 85.201 46.194 86.844 L 45.912 86.578 C 46.743 85.224 47.656 82.57 47.006 80.469 C 44.961 84.125 33.824 90.694 27.104 92.71 L 26.464 92.902 L 26.896 92.392 Z " fill="rgb(255,104,32)"/><path d=" M 28.267 25.522 C 28.267 25.522 30.361 24.551 30.761 23.235 C 29.51 23.509 28.088 24.044 26.617 24.879 C 26.826 25.178 27.285 25.556 28.267 25.522 Z " fill="rgb(255,255,255)"/><path d=" M 14.188 36.238 C 14.188 36.238 17.65 33.468 19.826 32.281 L 19.826 33.172 C 19.826 33.172 22.794 31.391 29.718 30.798 L 29.124 31.391 C 29.124 31.391 38.719 30.995 40.697 38.909 C 40.697 38.909 39.708 37.722 38.917 37.524 C 38.917 37.524 42.972 45.437 38.323 51.669 L 38.224 49.789 C 38.224 49.789 35.257 55.724 28.63 59.087 L 17.354 62.846 L 12.21 63.736 C 12.21 63.736 14.089 58.79 16.76 58.197 L 21.904 58.098 L 28.926 55.23 C 28.926 55.23 35.653 50.482 35.85 43.657 C 35.85 43.657 34.07 37.524 31.3 37.425 C 31.3 37.425 25.662 36.93 20.024 38.216 L 17.65 37.623 L 15.177 37.722 C 15.177 37.722 14.584 37.623 14.188 36.238 Z " fill="rgb(255,255,255)"/><path d=" M 15.111 34.194 C 15.111 34.194 22.827 28.867 25.201 25.53 L 24.409 24.566 C 24.409 24.566 17.683 31.292 13.727 34.194 L 15.111 34.194 Z " fill="rgb(255,255,255)"/><path d=" M 26.107 22.39 C 26.107 22.39 28.333 18.236 30.608 16.851 C 30.608 16.851 30.855 11.707 32.487 9.185 L 31.3 7.207 C 31.3 7.207 30.064 11.064 29.718 15.664 C 29.718 15.664 25.613 17.84 24.673 23.033 L 25.019 23.775 L 26.107 22.39 Z " fill="rgb(255,255,255)"/><path d=" M 32.933 19.225 C 32.933 19.225 34.317 18.631 35.257 16.059 L 35.306 17.84 C 35.306 17.84 36.691 15.614 35.801 11.806 L 34.169 9.135 L 33.526 10.026 C 33.526 10.026 34.614 13.735 32.933 19.225 Z " fill="rgb(255,255,255)"/><path d=" M 25.168 25.786 L 25.399 25.753 C 25.399 25.753 26.355 27.567 29.487 27.567 L 28.893 27.303 C 28.893 27.303 31.663 27.072 32.355 25.357 C 32.355 25.357 30.674 26.445 29.421 26.412 C 28.168 26.379 27.311 25.951 27.311 25.951 L 25.992 25.127 L 25.366 25.127 L 25.168 25.786 Z " fill="rgb(132,51,14)"/><path d=" M 30.08 25.984 C 30.08 25.984 31.927 25.16 32.52 23.808 C 32.52 23.808 33.114 23.115 33.938 23.115 C 33.938 23.115 32.751 22.225 31.861 22.39 C 31.861 22.39 31.103 24.302 30.344 24.83 C 29.586 25.357 28.498 25.984 28.498 25.984 L 30.08 25.984 Z " fill="rgb(132,51,14)"/><path d=" M 35.01 21.302 C 35.01 21.302 37.334 21.467 40.302 19.324 C 43.005 19.422 48.94 25.291 55.732 27.929 C 54.001 27.731 53.449 27.919 52.27 28.176 C 58.106 30.501 61.964 34.062 65.582 37.335 L 67.659 37.632 L 60.686 30.214 L 60.389 27.988 C 60.389 27.988 50.597 23.389 47.63 20.57 L 39.915 16.713 L 37.838 16.416 C 37.838 16.416 39.6 17.286 35.01 21.302 Z " fill="rgb(132,51,14)"/><path d=" M 42.577 44.349 C 42.577 44.349 48.808 45.734 52.27 45.437 L 51.083 46.03 C 51.083 46.03 58.007 47.02 61.173 46.624 L 58.403 47.712 C 58.403 47.712 63.151 48.8 65.525 48.8 L 64.931 50.383 L 52.567 51.965 L 51.182 49.196 C 51.182 49.196 47.72 46.723 42.577 44.349 Z " fill="rgb(132,51,14)"/><path d=" M 74.328 40.293 L 71.262 37.326 C 71.262 37.326 74.032 37.227 75.713 39.008 C 77.395 40.788 78.878 45.932 78.878 45.932 L 81.648 44.547 L 78.087 38.315 C 78.087 38.315 69.976 33.765 66.118 34.161 L 67.659 37.632 C 67.659 37.632 70.866 40.689 74.328 40.293 Z " fill="rgb(132,51,14)"/><path d=" M 47.902 73.194 C 47.902 73.194 44.357 76.694 36.741 80.354 C 36.741 80.354 41.093 80.156 43.368 78.87 L 40.401 82.629 C 40.401 82.629 45.247 81.936 46.83 80.156 C 46.83 80.156 46.929 82.926 45.544 84.113 C 44.159 85.3 33.378 91.234 33.378 91.234 L 25.86 93.114 L 28.234 88.959 C 28.234 88.959 14.881 92.817 8.451 83.025 L 8.352 81.739 C 8.352 81.739 16.859 84.211 20.024 83.222 L 15.573 78.771 L 17.353 78.376 C 17.353 78.376 22.793 79.939 31.202 78.277 C 39.708 76.595 47.902 73.194 47.902 73.194 Z " fill="rgb(255,255,255)"/><path d=" M 68.44 76.465 C 68.44 76.465 77.098 79.76 84.516 77.98 L 87.088 79.167 C 87.088 79.167 82.538 82.728 67.8 77.287 L 68.44 76.465 Z " fill="rgb(132,51,14)"/><path d=" M 81.45 76.694 C 81.45 76.694 86.989 75.309 88.572 69.968 C 88.572 69.968 90.056 68.286 90.352 68.286 C 90.649 68.286 90.649 71.946 90.649 71.946 C 90.649 71.946 87.583 76.892 81.45 76.694 Z " fill="rgb(132,51,14)"/><path d=" M 84.714 63.242 C 84.714 63.242 87.164 68.576 86.483 72.685 L 89.067 68.88 C 89.067 68.88 88.968 61.164 84.418 60.472 L 84.714 63.242 Z " fill="rgb(132,51,14)"/><path d=" M 85.011 65.912 C 85.011 65.912 78.186 61.263 71.262 63.044 L 69.877 61.461 C 69.877 61.461 77.889 59.977 83.23 62.154 C 83.23 62.154 84.615 63.143 85.011 65.912 Z " fill="rgb(132,51,14)"/><path d=" M 77.197 68.484 C 77.197 68.484 74.526 65.813 66.316 67.891 L 67.8 68.187 C 67.8 68.187 61.667 71.353 56.128 75.507 L 57.908 75.012 C 57.908 75.012 47.522 84.508 45.643 85.695 L 45.544 87.476 L 56.524 79.167 C 56.524 79.167 65.228 70.364 69.58 69.671 C 73.933 68.979 76.109 69.572 76.109 69.572 L 77.197 68.484 Z " fill="rgb(132,51,14)"/><path d=" M 36.477 78.376 C 36.477 78.376 26.388 82.068 19.596 82.134 L 17.024 79.035 L 21.64 79.694 C 21.64 79.694 33.444 78.507 36.477 78.376 Z " fill="rgb(216,217,218)"/><path d=" M 24.541 83.057 C 24.541 83.057 21.112 85.366 15.111 85.299 L 18.013 86.552 L 16.826 86.552 C 16.826 86.552 24.937 88.135 31.861 86.091 C 31.861 86.091 30.212 87.806 28.828 88.333 C 27.443 88.861 16.76 90.245 13.529 87.871 C 10.298 85.497 8.352 81.739 8.352 81.739 L 18.804 83.057 C 18.804 83.057 21.706 84.179 24.541 83.057 Z " fill="rgb(216,217,218)"/><path d=" M 26.651 91.96 C 26.651 91.96 32.52 89.652 35.29 87.014 L 34.762 88.333 C 34.762 88.333 38.653 86.618 41.95 85.036 L 41.95 85.959 C 41.95 85.959 27.97 93.905 26.388 93.905 L 26.651 91.96 Z " fill="rgb(216,217,218)"/><path d=" M 20.321 58.461 C 20.321 58.461 12.408 59.978 13.397 63.341 L 10.133 66.11 C 10.133 66.11 11.418 60.373 13.792 59.318 C 13.792 59.318 12.078 59.318 11.22 59.846 C 11.22 59.846 14.65 55.427 19.727 56.021 C 19.727 56.021 20.815 57.636 23.387 56.911 C 25.959 56.186 35.487 51.735 34.894 42.964 C 34.894 42.964 34.894 43.624 33.905 45.206 C 33.905 45.206 34.249 40.364 30.806 38.744 C 26.321 36.634 20.189 40.063 18.408 38.81 C 16.1 39.272 14.056 38.612 13.594 37.293 C 13.594 37.293 11.485 36.435 11.287 33.732 C 11.287 33.732 12.803 32.611 13.858 32.413 C 13.858 32.413 22.062 26.847 23.024 24.236 C 23.189 21.302 25.135 19.225 27.641 16.455 C 27.641 16.455 27.772 11.641 25.794 9.597 C 25.794 9.597 26.981 8.674 29.751 9.135 C 29.751 9.135 30.113 6.662 29.948 5.179 C 32.042 5.476 38.398 8.616 39.18 14.675 C 40.005 21.054 35.026 21.269 35.026 21.269 C 35.026 21.269 39.906 16.208 34.235 9.927 C 34.235 9.927 35.752 14.938 32.85 19.291 L 31.927 16.719 L 31.135 17.246 C 31.135 17.246 31.333 13.817 32.718 11.443 C 32.718 11.443 32.125 8.806 31.597 8.344 C 31.597 8.344 30.212 14.213 30.344 16.323 C 30.344 16.323 24.179 22.258 24.97 25.258 C 23.062 27.654 18.388 31.143 15.573 33.468 C 15.573 33.468 16.1 33.93 14.65 35.908 C 14.65 35.908 15.705 38.546 18.408 35.183 C 18.408 35.183 18.672 35.71 18.211 36.37 C 18.211 36.37 22.893 34.919 25.794 32.413 C 25.794 32.413 28.086 33.254 26.503 34.705 C 24.08 35.001 20.123 36.766 18.804 37.161 C 18.804 37.161 19.991 37.887 21.442 37.491 C 22.892 37.095 25.266 36.04 29.553 36.502 C 29.553 36.502 28.893 35.711 28.168 35.513 C 28.168 35.513 34.169 34.524 36.345 39.535 C 36.345 39.535 36.543 37.557 35.619 35.908 C 35.619 35.908 40.499 38.711 38.719 47.613 L 36.939 44.151 C 36.939 44.151 36.048 56.911 22.629 59.252 L 16.298 61.23 L 20.321 58.725" fill="rgb(44,46,53)"/><path d=" M 27.057 21.455 C 27.057 21.455 25.785 23.391 26.228 23.778 C 26.228 23.778 32.455 19.521 33.971 23.17 C 32.158 22.654 28.663 23.346 25.121 25.825 L 24.624 24.774 C 24.624 24.774 25.066 22.063 27.057 21.455 Z " fill="rgb(44,46,53)"/><path d=" M 26.454 24.533 C 26.454 24.533 26.663 25.578 28.267 25.522 C 28.267 25.522 30.838 24.33 30.827 22.798 L 32.652 22.522 C 32.652 22.522 31.371 25.216 29.602 25.824 C 29.602 25.824 30.874 25.88 32.422 25.216 C 31.316 27.041 27.61 27.982 25.287 25.327 L 26.454 24.533 Z " fill="rgb(44,46,53)"/><path d=" M 13.99 36.437 C 13.99 36.437 17.662 32.066 21.904 31.045 L 20.745 32.353 C 20.745 32.353 25.773 30.703 30.015 30.703 C 30.015 30.703 21.162 32.677 18.788 34.309 L 19.253 33.138 C 19.253 33.138 15.561 35.809 14.776 37.223 L 13.99 36.437 Z " fill="rgb(44,46,53)"/><path d=" M 38.587 15.07 C 40.697 15.07 48.544 19.159 51.907 19.357 L 49.27 20.148 C 49.27 20.148 58.7 27.336 65.821 27.995 C 65.821 27.995 64.305 28.655 62.392 28.853 C 62.392 28.853 67.42 34.427 74.262 34.655 C 76.241 34.721 83.956 40.326 83.033 44.943 L 80.527 45.668 C 80.527 45.668 79.274 38.546 73.801 36.963 C 68.327 35.381 67.272 35.381 67.272 35.381 C 67.272 35.381 70.767 38.81 74.526 40.458 C 70.471 41.184 66.943 40.887 62.261 36.535 L 66.217 36.7 C 66.217 36.7 60.282 30.501 56.392 29.05 C 57.117 28.984 58.04 28.853 59.161 28.655 C 52.369 26.149 44.06 18.104 38.587 17.576 L 38.587 15.07 Z " fill="rgb(44,46,53)"/><path d=" M 82.792 43.27 C 76.413 45.94 11.913 63.143 11.913 63.143 L 10.034 66.209 L 83.923 46.129 C 83.923 46.129 83.287 44.556 82.792 43.27 Z " fill="rgb(44,46,53)"/><path d=" M 42.478 44.349 C 45.346 45.239 51.281 47.613 55.04 47.415 L 52.963 48.899 C 52.963 48.899 56.524 50.68 62.162 49.69 L 52.27 52.658 C 52.27 52.658 51.38 52.361 47.918 50.581 L 49.402 49.097 C 49.402 49.097 44.456 46.723 42.478 44.349 Z " fill="rgb(44,46,53)"/><path d=" M 64.037 74.531 L 64.826 74.754 C 65.145 74.844 65.454 74.89 65.745 74.89 C 67.577 74.89 68.499 73.039 68.537 72.96 L 68.943 72.094 L 69.885 72.251 C 69.903 72.254 71.722 72.538 73.485 72.538 C 75.077 72.538 75.702 72.309 75.907 72.203 C 75.891 71.499 75.67 70.493 72.636 70.493 C 70.127 70.493 67.139 72.169 64.037 74.531 Z  M 31.95 86.176 C 30.806 89.157 28.263 91.088 27.047 92.52 C 33.971 90.443 45.742 83.42 47.028 79.958 C 48.017 82.233 46.929 85.3 46.08 86.682 C 48.412 85.047 51.186 82.471 54.067 79.795 C 56.266 77.752 58.491 75.686 60.7 73.848 L 61.228 73.413 C 65.336 70.062 69.379 67.572 73.092 67.572 C 77.996 67.572 79.026 70.021 79.026 72.076 C 79.026 72.606 78.823 73.904 76.942 74.495 C 76.18 74.735 75.203 74.851 73.957 74.851 C 72.739 74.851 71.529 74.736 70.746 74.643 C 70.308 75.263 69.58 76.086 68.533 76.64 C 70.999 77.903 75.004 79.352 80.398 79.352 C 82.097 79.352 83.84 79.209 85.616 78.926 C 85.013 78.698 83.344 77.856 81.515 76.582 C 85.261 75.838 88.831 74.288 90.147 69.392 C 89.887 69.71 89.609 70.014 89.315 70.291 L 86.134 73.284 L 87.163 69.04 C 87.744 66.643 87.721 63.704 85.248 61.626 C 85.37 62.076 85.432 62.527 85.399 62.957 L 85.176 65.857 L 83.191 63.781 C 83.063 63.664 80.685 61.571 75.267 61.571 C 74.132 61.571 72.941 61.662 71.698 61.842 C 72.242 62.115 72.742 62.435 73.143 62.808 L 75.975 65.437 L 72.13 65.051 C 70.483 64.886 68.265 64.696 65.711 64.696 C 62.74 64.696 60.072 64.956 57.731 65.472 C 58.231 65.769 58.702 66.137 59.097 66.593 L 60.111 67.764 L 58.781 68.558 C 56.145 70.133 52.467 70.486 48.909 70.828 C 47.457 70.967 44.073 71.42 42.775 71.649 C 43.812 71.939 46.731 71.946 48.254 73.212 C 45.643 74.815 34.126 80.66 23.053 80.661 L 23.051 80.661 C 21.309 80.661 19.668 80.506 18.139 80.198 C 18.842 80.629 21.508 82.233 24.699 83.041 C 17.848 85.596 12.39 83.83 9.935 83.025 C 11.354 85.206 14.168 88.151 20.582 88.151 C 23.018 88.151 27.344 87.772 31.95 86.176 Z  M 24.862 94.73 L 21.171 94.73 L 24.078 92.455 C 24.955 91.768 25.758 90.951 26.431 90.182 C 24.561 90.505 22.797 90.667 21.159 90.667 C 14.669 90.667 11.124 88.112 9.294 85.969 C 7.273 83.604 5.682 78.573 5.682 78.573 C 5.682 78.573 11.616 81.838 16.381 81.776 C 13.733 79.811 12.309 78.079 11.895 74.566 C 14.188 76.496 20.132 78.234 23.58 78.234 L 23.582 78.234 C 30.493 78.233 37.883 75.522 41.972 73.752 C 41.411 73.716 39.411 73.628 37.378 73.913 C 39.411 69.968 44.589 68.999 48.686 68.605 C 50.959 68.387 53.287 68.163 55.196 67.607 C 54.362 67.336 53.525 67.232 53.141 67.217 L 47.545 66.995 L 52.687 64.777 C 55.011 63.774 57.762 63.112 60.903 62.797 L 59.962 62.676 L 65.761 60.96 C 68.991 60.004 72.022 59.519 74.768 59.519 C 77.337 59.519 79.34 59.944 80.833 60.469 C 80.694 60.28 80.555 60.104 80.424 59.949 L 77.68 56.707 L 81.754 57.905 C 85.074 58.881 87.235 59.449 88.374 61.956 C 88.67 62.607 88.984 64.5 89.115 65.23 C 89.561 64.824 90.451 63.736 90.946 61.164 C 93.814 68.583 91.342 75.111 87 77.076 C 88.077 78.178 89.363 78.771 90.847 79.562 C 74.872 85.745 63.861 77.134 63.628 76.925 L 62.405 75.825 C 60.157 77.672 57.882 79.785 55.718 81.795 C 51.094 86.09 47.1 89.799 43.853 90.72 L 40.928 91.548 L 42.39 88.883 C 42.869 88.008 43.263 87.125 43.582 86.295 C 40.127 89.229 36.739 91.092 34.248 92.212 C 30.121 94.068 26.693 94.73 24.862 94.73 Z " fill="rgb(44,46,53)"/><path d=" M 50.35 71.886 C 50.024 71.987 49.658 72.108 49.27 72.236 C 47.277 72.892 44.266 73.885 41.497 73.885 C 41.321 73.885 41.149 73.879 40.98 73.872 L 42.699 73.456 C 42.768 73.44 44.021 73.137 45.181 72.849 L 45.179 72.858 L 48.278 72.072 C 48.575 71.997 55.155 70.329 56.434 70.003 L 50.35 71.886 Z  M 59.506 58.086 C 59.2 59.47 58.949 60.605 58.742 61.541 C 58.458 61.422 58.16 61.288 57.869 61.156 C 57.241 60.871 56.745 60.647 56.309 60.537 L 56.016 60.464 L 59.506 58.086 Z  M 85.919 44.747 C 85.433 44.144 84.707 43.812 83.875 43.812 C 83.574 43.812 83.264 43.854 82.929 43.94 C 82.668 44.006 82.113 44.146 81.404 44.325 C 80.117 44.648 78.354 45.092 76.896 45.466 C 76.082 45.675 75.473 45.835 75.032 45.954 C 74.772 46.024 74.576 46.079 74.433 46.122 C 73.71 46.337 73.225 46.728 72.982 47.286 C 72.597 47.077 72.154 46.963 71.689 46.963 C 71.423 46.963 71.149 46.999 70.873 47.07 L 61.403 49.501 L 61.228 50.295 C 60.845 50.09 60.406 49.978 59.945 49.978 C 59.679 49.978 59.405 50.014 59.129 50.085 L 49.659 52.517 L 49.494 53.265 C 49.104 53.056 48.66 52.944 48.194 52.944 C 47.938 52.944 47.677 52.978 47.418 53.044 L 39.828 54.993 C 38.815 55.253 38.033 55.91 37.508 56.682 C 37.058 56.329 36.489 56.139 35.86 56.139 C 35.559 56.139 35.25 56.182 34.914 56.268 C 34.652 56.335 34.095 56.475 33.383 56.654 C 32.096 56.978 30.334 57.421 28.878 57.795 C 28.065 58.004 27.456 58.163 27.016 58.282 C 26.756 58.353 26.56 58.408 26.417 58.45 C 25.693 58.666 25.207 59.059 24.965 59.62 C 24.602 59.435 24.188 59.336 23.745 59.336 C 23.47 59.336 23.179 59.375 22.883 59.451 L 12.868 62.022 L 11.528 62.369 L 11.456 62.701 C 10.566 63.372 10.07 64.34 9.892 65.16 C 9.837 65.415 8.88 69.834 8.88 69.834 L 10.615 70.369 C 11.289 70.576 12.186 70.83 12.86 71.015 L 11.196 78.695 L 10.519 81.83 L 10.527 81.828 L 10.525 81.835 L 13.656 81.031 C 14.208 80.889 14.82 80.731 15.368 80.588 C 15.941 80.443 16.572 80.283 17.124 80.141 L 18.308 79.837 L 20.453 69.909 L 21.729 69.04 C 22.097 68.789 22.555 68.475 23.034 68.145 C 22.401 71.019 21.871 73.449 21.56 74.885 L 20.637 79.146 L 29.431 76.888 L 29.724 75.534 C 31.666 78.288 34.693 80.777 38.661 80.994 C 38.946 81.009 39.236 81.017 39.522 81.017 L 39.523 81.017 C 45.446 81.017 50.196 77.793 52.464 75.032 L 56.637 69.951 C 56.785 69.911 56.936 69.862 57.087 69.801 L 60.022 69.057 C 60.339 68.977 67.785 67.089 68.357 66.942 C 68.541 66.895 68.729 66.83 68.916 66.75 L 77.446 64.56 L 77.607 63.817 C 77.981 64.083 78.384 64.162 78.723 64.164 L 78.98 64.166 L 88.134 61.667 C 85.76 60.629 83.599 58.509 82.913 56.251 C 83.182 56.072 83.535 55.841 83.999 55.547 L 84.698 55.104 C 84.698 55.104 86.316 47.631 86.404 47.225 C 86.611 46.271 86.439 45.39 85.919 44.747 Z " fill="rgb(44,46,53)"/><path d=" M 29.457 62.777 L 28.54 67.01 C 28.631 66.986 29.526 66.384 31.224 65.201 C 31.793 64.816 32.086 64.583 32.104 64.501 L 32.655 61.956 C 32.673 61.874 32.643 61.843 32.566 61.862 L 29.599 62.624 C 29.52 62.651 29.473 62.702 29.457 62.777 Z  M 36.456 59.134 C 36.368 59.541 34.925 66.204 34.925 66.204 C 33.415 67.162 32.583 67.715 32.611 67.864 C 34.911 80.008 46.78 75.062 50.935 73.776 C 48.66 76.546 44.018 79.305 38.768 79.019 C 33.328 78.722 30.216 73.202 29.442 70.578 C 29.348 70.243 29.252 70.089 29.153 70.114 C 28.147 70.802 27.638 71.172 27.627 71.224 L 27.07 73.794 C 27.035 73.959 27.272 74.411 27.783 75.153 L 27.756 75.276 L 23.249 76.433 L 23.493 75.304 C 24.16 72.227 25.496 66.128 26.777 60.418 C 26.797 60.333 34.205 58.492 35.406 58.184 C 36.607 57.875 36.544 58.727 36.456 59.134 Z " fill="rgb(240,239,240)"/><path d=" M 77.471 50.449 L 76.554 54.682 C 76.646 54.658 77.541 54.055 79.239 52.873 C 79.807 52.488 80.101 52.255 80.118 52.173 L 80.67 49.628 C 80.687 49.546 80.658 49.515 80.58 49.534 L 77.614 50.296 C 77.535 50.324 77.487 50.374 77.471 50.449 Z  M 84.471 46.806 C 84.383 47.213 82.939 53.876 82.939 53.876 C 81.429 54.834 80.658 55.387 80.626 55.536 C 81.529 58.486 82.199 60.332 83.831 60.925 L 82.294 61.273 L 78.737 62.186 C 78.657 62.185 78.23 60.874 77.456 58.25 C 77.363 57.916 77.266 57.761 77.168 57.786 C 76.162 58.474 75.653 58.844 75.642 58.896 L 75.085 61.466 C 75.049 61.63 75.287 62.083 75.797 62.825 L 75.771 62.948 L 71.264 64.105 L 71.508 62.976 C 72.175 59.898 73.511 53.8 74.792 48.09 C 74.811 48.005 82.22 46.164 83.42 45.856 C 84.621 45.547 84.559 46.399 84.471 46.806 Z " fill="rgb(240,239,240)"/><path d=" M 63.072 51.115 C 63.072 51.115 70.519 49.203 71.365 48.986 C 72.068 48.806 72.499 49.175 72.304 50.071 C 72.147 50.796 71.825 52.284 71.825 52.284 L 68.687 54.423 L 69.106 52.49 L 65.89 53.315 C 65.809 53.351 65.761 53.401 65.747 53.468 L 65.166 56.151 C 65.162 56.23 65.192 56.261 65.255 56.244 L 69.404 55.179 L 68.779 58.063 L 64.63 59.128 C 64.55 59.163 64.502 59.218 64.485 59.292 L 63.608 63.342 C 63.604 63.421 63.634 63.452 63.697 63.436 L 66.871 62.621 C 66.885 62.617 67.457 59.975 67.572 59.441 C 68.046 59.56 69.13 60.127 70.074 60.494 C 70.074 60.494 69.629 62.549 69.439 63.427 C 69.249 64.304 68.442 64.878 67.865 65.026 C 67.289 65.174 59.536 67.139 59.536 67.139 L 59.55 67.072 C 59.785 65.988 59.756 66.115 63.072 51.115 Z " fill="rgb(240,239,240)"/><path d=" M 51.328 54.131 C 51.328 54.131 58.775 52.219 59.621 52.001 C 60.324 51.821 60.754 52.19 60.56 53.086 C 60.403 53.812 60.081 55.299 60.081 55.299 L 56.943 57.438 L 57.362 55.505 L 54.145 56.331 C 54.065 56.366 54.017 56.416 54.003 56.484 L 51.864 66.358 C 51.86 66.436 51.89 66.467 51.953 66.451 L 55.127 65.636 C 55.141 65.633 55.712 62.991 55.828 62.456 C 56.301 62.575 57.386 63.143 58.33 63.509 C 58.33 63.509 57.885 65.565 57.695 66.442 C 57.505 67.319 56.698 67.893 56.121 68.041 C 55.545 68.189 47.792 70.155 47.792 70.155 L 47.806 70.088 C 48.041 69.003 48.012 69.131 51.328 54.131 Z " fill="rgb(240,239,240)"/><path d=" M 23.374 61.368 C 23.333 61.378 23.28 61.392 23.218 61.408 C 21.726 61.79 14.524 63.64 13.36 63.938 C 13.257 63.965 13.201 63.979 13.201 63.979 C 13.201 63.982 13.2 63.985 13.199 63.988 C 12.2 64.332 11.888 65.288 11.826 65.578 C 11.77 65.833 11.197 68.478 11.197 68.478 C 11.92 68.701 12.947 68.99 13.675 69.187 C 13.821 68.615 14.057 67.528 14.23 66.731 C 14.905 66.539 15.492 66.368 15.914 66.259 L 13.13 79.114 C 13.13 79.114 13.143 79.11 13.166 79.105 L 13.164 79.115 C 13.716 78.973 14.328 78.815 14.876 78.673 C 15.448 78.527 16.08 78.367 16.632 78.225 L 19.412 65.362 C 19.872 65.247 20.442 65.125 21.119 64.969 C 20.947 65.765 20.713 66.847 20.614 67.405 C 21.519 66.789 22.799 65.908 23.709 65.266 C 23.709 65.266 24.282 62.62 24.337 62.366 C 24.403 62.06 24.503 61.078 23.374 61.368 Z " fill="rgb(240,239,240)"/><path d=" M 41.585 60.589 C 41.494 61.008 40.886 63.815 40.886 63.815 C 40.883 63.893 40.912 63.925 40.976 63.908 L 43.942 63.146 C 44.019 63.127 44.067 63.076 44.085 62.994 C 44.085 62.994 44.755 60.021 44.818 59.735 C 44.851 59.582 44.867 59.27 44.579 59.344 C 44.182 59.445 42.384 59.92 42.078 59.998 C 41.772 60.077 41.629 60.385 41.585 60.589 Z  M 40.32 56.909 C 41.136 56.699 47.238 55.133 47.91 54.96 C 48.583 54.788 49.018 55.222 48.875 55.883 C 48.732 56.544 45.733 70.669 45.733 70.669 C 44.451 70.998 42.235 71.533 42.235 71.533 L 43.378 66.258 C 43.396 66.176 43.366 66.145 43.288 66.164 L 40.322 66.926 C 40.241 66.961 40.194 67.012 40.179 67.079 L 39.034 72.365 L 35.999 71.006 C 35.999 71.006 37.673 63.634 38.738 58.714 C 38.904 57.951 39.503 57.119 40.32 56.909 Z " fill="rgb(240,239,240)"/><path d=" M 67.646 59.565 C 67.574 59.899 67.422 60.601 67.28 61.251 C 67.2 61.615 67.124 61.962 67.066 62.219 C 66.959 62.701 66.959 62.701 66.896 62.717 L 63.722 63.531 C 63.703 63.536 63.685 63.539 63.668 63.539 C 63.612 63.539 63.576 63.514 63.556 63.493 C 63.521 63.456 63.506 63.406 63.509 63.338 L 63.51 63.329 L 64.389 59.271 C 64.405 59.198 64.453 59.097 64.591 59.037 L 64.598 59.034 L 68.695 57.983 L 68.909 56.995 L 61.458 58.878 C 59.911 65.877 59.835 66.227 59.666 67.004 C 60.763 66.726 67.316 65.065 67.841 64.93 C 68.442 64.776 69.172 64.189 69.342 63.406 L 69.96 60.555 C 69.559 60.396 69.133 60.203 68.755 60.032 C 68.304 59.828 67.908 59.649 67.646 59.565 Z  M 80.531 55.565 L 80.524 55.541 L 80.529 55.515 C 80.549 55.424 80.586 55.253 82.852 53.815 C 82.864 53.755 82.892 53.629 82.93 53.452 L 73.152 55.923 C 72.488 58.939 71.928 61.503 71.605 62.997 L 71.394 63.969 L 75.687 62.867 L 75.692 62.845 C 75.014 61.857 74.96 61.578 74.988 61.445 L 75.545 58.875 C 75.558 58.815 75.57 58.758 77.112 57.704 L 77.127 57.694 L 77.143 57.69 C 77.158 57.686 77.174 57.684 77.189 57.684 C 77.337 57.684 77.446 57.846 77.551 58.222 C 78.408 61.127 78.686 61.899 78.775 62.074 L 82.272 61.176 L 83.509 60.897 C 82.041 60.185 81.392 58.375 80.531 55.565 Z  M 55.902 62.581 C 55.83 62.914 55.678 63.617 55.536 64.266 C 55.456 64.63 55.38 64.978 55.322 65.234 C 55.215 65.716 55.215 65.716 55.151 65.732 L 51.978 66.547 C 51.959 66.551 51.941 66.554 51.924 66.554 C 51.867 66.554 51.832 66.529 51.812 66.508 C 51.778 66.472 51.762 66.42 51.765 66.353 L 51.766 66.345 L 52.915 61.036 L 49.725 61.842 C 48.167 68.893 48.09 69.243 47.922 70.02 C 49.02 69.741 55.572 68.08 56.097 67.945 C 56.698 67.791 57.428 67.204 57.598 66.421 L 58.215 63.57 C 57.815 63.412 57.39 63.219 57.012 63.048 C 56.561 62.844 56.164 62.664 55.902 62.581 Z  M 41.497 75.962 C 36.552 75.962 33.529 73.244 32.514 67.883 C 32.479 67.7 32.781 67.448 34.837 66.143 C 34.855 66.061 34.899 65.859 34.96 65.573 L 25.184 68.043 C 24.498 71.153 23.921 73.8 23.59 75.325 L 23.38 76.297 L 27.672 75.195 L 27.677 75.173 C 27 74.185 26.945 73.906 26.974 73.774 L 27.53 71.203 C 27.543 71.143 27.556 71.086 29.098 70.032 L 29.112 70.023 L 29.129 70.018 C 29.144 70.014 29.159 70.012 29.174 70.012 C 29.323 70.012 29.431 70.174 29.536 70.55 C 29.922 71.857 30.885 73.872 32.429 75.605 C 33.697 77.029 35.828 78.759 38.774 78.92 C 39.022 78.933 39.273 78.94 39.522 78.94 L 39.522 78.94 C 39.789 78.94 40.053 78.931 40.317 78.916 C 42.172 78.426 44.052 77.931 45.941 77.435 C 47.889 76.504 49.52 75.247 50.637 73.974 C 50.413 74.046 50.171 74.126 49.92 74.208 C 47.801 74.907 44.599 75.962 41.497 75.962 Z  M 40.083 67.058 C 40.104 66.959 40.171 66.884 40.282 66.835 L 40.29 66.832 L 43.264 66.069 C 43.287 66.063 43.308 66.06 43.328 66.06 C 43.378 66.06 43.42 66.079 43.448 66.113 C 43.481 66.154 43.49 66.209 43.475 66.279 L 42.365 71.4 C 42.88 71.276 44.573 70.864 45.649 70.589 C 45.762 70.055 46.599 66.11 47.38 62.435 L 37.466 64.94 C 36.803 67.906 36.221 70.472 36.113 70.949 L 38.964 72.225 L 40.083 67.058 Z  M 13.26 78.979 L 13.298 78.97 L 13.296 78.979 C 13.805 78.848 14.354 78.706 14.851 78.576 C 15.404 78.437 16.01 78.282 16.548 78.144 L 18.359 69.767 L 15.076 70.597 L 13.26 78.979 Z " fill="rgb(144,156,165)"/></g></g></svg>